<?xml version="1.0" standalone="no"?>
<!DOCTYPE svg PUBLIC "-//W3C//DTD SVG 20010904//EN"
 "http://www.w3.org/TR/2001/REC-SVG-20010904/DTD/svg10.dtd">
<svg version="1.0" xmlns="http://www.w3.org/2000/svg"
 width="2938.000000pt" height="2973.000000pt" viewBox="0 0 2938.000000 2973.000000"
 preserveAspectRatio="xMidYMid meet">

<g transform="translate(0.000000,2973.000000) scale(0.100000,-0.100000)"
fill="#000000" stroke="none">
<path d="M14350 17755 l1 -1630 1422 -821 c782 -451 1423 -820 1425 -819 4 3
-2819 4868 -2834 4885 -12 12 -14 -246 -14 -1615z"/>
<path d="M9702 9407 c-116 -67 -212 -124 -212 -127 0 -8 7695 -4451 7719
-4457 10 -3 497 275 1277 727 692 403 1262 735 1266 738 7 8 -459 278 -473
275 -4 -2 -481 -277 -1059 -613 -955 -555 -1052 -610 -1073 -599 -31 17 -7187
4148 -7213 4164 -19 12 -40 3 -232 -108z"/>
</g>
</svg>
