<?xml version="1.0" standalone="no"?>
<!DOCTYPE svg PUBLIC "-//W3C//DTD SVG 20010904//EN"
 "http://www.w3.org/TR/2001/REC-SVG-20010904/DTD/svg10.dtd">
<svg version="1.0" xmlns="http://www.w3.org/2000/svg"
 width="2939.000000pt" height="2973.000000pt" viewBox="0 0 2939.000000 2973.000000"
 preserveAspectRatio="xMidYMid meet">

<g transform="translate(0.000000,2973.000000) scale(0.100000,-0.100000)"
fill="#000000" stroke="none">
<path d="M10898 18191 c-367 -118 -471 -650 -241 -1236 178 -454 508 -847 858
-1021 135 -67 238 -94 356 -94 197 0 346 94 434 274 54 110 67 173 72 346 4
128 1 177 -16 279 -80 469 -390 979 -768 1262 -101 76 -277 164 -377 189 -102
26 -239 26 -318 1z m354 -200 c415 -106 843 -640 949 -1185 28 -139 27 -314 0
-419 -55 -211 -185 -332 -369 -344 -199 -14 -422 95 -637 311 -470 473 -650
1225 -366 1529 109 117 249 152 423 108z"/>
<path d="M9440 10870 c-113 -66 -206 -123 -207 -127 -3 -9 8447 -4889 8463
-4887 15 2 2528 1463 2531 1472 2 4 -93 62 -211 130 l-214 123 -1053 -612
c-579 -337 -1058 -612 -1063 -612 -6 0 -1816 1042 -4023 2316 -2207 1275
-4014 2317 -4015 2317 -2 0 -95 -54 -208 -120z"/>
</g>
</svg>
