<?xml version="1.0" standalone="no"?>
<!DOCTYPE svg PUBLIC "-//W3C//DTD SVG 20010904//EN"
 "http://www.w3.org/TR/2001/REC-SVG-20010904/DTD/svg10.dtd">
<svg version="1.0" xmlns="http://www.w3.org/2000/svg"
 width="2938.000000pt" height="2973.000000pt" viewBox="0 0 2938.000000 2973.000000"
 preserveAspectRatio="xMidYMid meet">

<g transform="translate(0.000000,2973.000000) scale(0.100000,-0.100000)"
fill="#000000" stroke="none">
<path d="M11135 21170 c-9 -14 -82 -310 -89 -362 -7 -47 -7 -47 36 -78 75 -55
219 -141 343 -206 372 -195 809 -332 1290 -404 220 -34 284 -36 337 -13 50 23
89 68 108 126 23 74 -16 172 -86 213 -31 18 -75 28 -195 44 -496 66 -924 194
-1289 386 -122 64 -305 184 -390 255 -32 27 -62 45 -65 39z"/>
<path d="M15909 21118 c-388 -312 -998 -543 -1662 -628 -87 -11 -170 -26 -185
-34 -60 -31 -102 -102 -102 -171 0 -58 19 -102 61 -142 66 -62 102 -65 359
-28 622 91 1156 281 1593 568 85 56 107 75 107 94 0 60 -85 393 -100 393 -4 0
-36 -23 -71 -52z"/>
<path d="M11010 19694 l0 -259 73 -51 c445 -317 1084 -546 1760 -630 150 -18
191 -14 251 29 41 29 80 118 73 168 -8 58 -39 110 -84 142 -36 26 -58 31 -189
48 -773 99 -1392 355 -1821 753 l-63 58 0 -258z"/>
<path d="M16055 19899 c-114 -117 -329 -269 -525 -373 -364 -192 -786 -317
-1297 -385 -156 -20 -187 -33 -236 -94 -60 -74 -45 -195 33 -260 54 -46 98
-52 255 -32 660 80 1281 299 1733 612 l92 64 0 259 c0 143 -1 260 -3 260 -1 0
-25 -23 -52 -51z"/>
<path d="M11010 18473 l0 -258 73 -51 c450 -320 1093 -548 1771 -629 129 -16
141 -16 182 0 54 21 109 81 125 137 23 83 -26 184 -105 218 -23 10 -86 23
-141 29 -642 75 -1237 289 -1645 592 -44 32 -121 95 -170 140 l-90 80 0 -258z"/>
<path d="M16033 18659 c-386 -367 -1058 -645 -1778 -734 -71 -8 -143 -18 -159
-21 -36 -8 -105 -70 -123 -111 -31 -75 -7 -173 57 -226 53 -45 96 -51 244 -32
677 86 1250 284 1714 593 63 41 116 80 118 86 2 6 3 124 2 263 l-3 251 -72
-69z"/>
<path d="M10270 18457 l0 -124 -49 -74 c-85 -130 -129 -276 -118 -390 10 -95
45 -149 125 -194 l37 -21 0 -779 c0 -846 1 -859 61 -1215 154 -921 591 -1907
1213 -2737 768 -1024 1738 -1698 2594 -1804 156 -19 446 -7 577 24 179 43 357
123 484 220 38 28 83 60 100 70 42 25 105 87 181 177 218 260 360 604 426
1027 30 196 40 774 37 2132 l-3 1183 -155 90 c-187 109 -180 105 -180 79 0
-12 -2 -21 -5 -21 -2 0 -38 18 -80 40 -49 26 -89 40 -113 40 -60 0 -154 -51
-225 -123 -181 -184 -235 -483 -106 -579 29 -21 327 -196 479 -281 l45 -25 3
-514 c3 -713 -13 -1626 -32 -1748 -65 -423 -207 -746 -431 -979 -187 -196
-384 -304 -658 -363 -141 -29 -391 -29 -557 0 -592 107 -1259 517 -1807 1110
-815 884 -1346 1988 -1490 3097 -17 130 -18 230 -15 1375 l3 1235 -123 70
c-67 39 -143 82 -170 98 l-48 27 0 -123z"/>
<path d="M10991 18070 c-7 -20 -33 -49 -57 -68 -84 -63 -171 -197 -208 -321
-31 -104 -17 -231 32 -284 18 -21 127 -87 143 -87 5 0 9 43 10 98 l0 97 23
-83 c13 -46 46 -129 74 -185 407 -813 1870 -1280 3282 -1046 468 77 924 244
1250 457 557 364 785 840 629 1316 -55 169 -56 167 -61 -74 -4 -197 -7 -222
-31 -303 -158 -518 -761 -946 -1593 -1131 -316 -70 -583 -98 -934 -98 -744 1
-1416 174 -1900 490 -263 171 -432 351 -541 577 -73 150 -91 240 -98 480 -6
183 -7 197 -20 165z"/>
<path d="M16435 15687 c-134 -45 -248 -155 -332 -321 -62 -123 -88 -276 -63
-367 18 -66 51 -101 152 -160 l96 -57 -23 35 c-39 56 -48 98 -43 197 6 110 36
205 101 309 100 160 241 262 363 262 l61 0 -92 53 c-103 58 -156 70 -220 49z"/>
<path d="M16935 9193 c-10 -57 -86 -210 -138 -279 -66 -86 -188 -199 -292
-270 -127 -86 -1188 -697 -1320 -760 -712 -341 -1777 -335 -2473 15 -122 62
-1226 705 -1302 759 -95 68 -221 193 -278 275 -60 88 -78 122 -108 207 l-23
65 0 -383 c-1 -251 3 -398 10 -427 9 -37 8 -58 -7 -117 -22 -87 -24 -239 -5
-318 50 -204 222 -427 441 -572 135 -89 1185 -696 1295 -749 209 -100 476
-178 755 -221 137 -20 191 -23 465 -23 275 0 327 3 465 24 293 44 539 116 755
220 143 69 1201 678 1329 765 338 230 500 564 424 873 -8 33 -6 56 8 110 16
60 17 111 15 453 -1 212 -4 386 -6 388 -1 2 -6 -14 -10 -35z"/>
</g>
</svg>
