<?xml version="1.0" standalone="no"?>
<!DOCTYPE svg PUBLIC "-//W3C//DTD SVG 20010904//EN"
 "http://www.w3.org/TR/2001/REC-SVG-20010904/DTD/svg10.dtd">
<svg version="1.0" xmlns="http://www.w3.org/2000/svg"
 width="2938.000000pt" height="2973.000000pt" viewBox="0 0 2938.000000 2973.000000"
 preserveAspectRatio="xMidYMid meet">

<g transform="translate(0.000000,2973.000000) scale(0.100000,-0.100000)"
fill="#000000" stroke="none">
<path d="M11880 20342 c0 -31 103 -658 109 -665 10 -10 523 -188 529 -183 2 2
-20 152 -48 333 -35 223 -56 332 -66 339 -8 6 -123 49 -257 94 -133 46 -248
85 -254 88 -7 2 -13 -1 -13 -6z"/>
<path d="M13106 18673 c3 -16 27 -167 54 -336 26 -170 50 -310 53 -313 9 -9
529 -185 533 -181 4 4 -95 667 -101 674 -4 6 -521 183 -532 183 -8 0 -11 -10
-7 -27z"/>
<path d="M14300 17094 c0 -5 24 -159 53 -343 l53 -334 273 -93 273 -94 -6 28
c-3 15 -26 160 -51 322 -25 162 -47 304 -50 316 -4 18 -46 35 -262 109 -142
48 -264 90 -270 93 -7 2 -13 0 -13 -4z"/>
<path d="M15530 15438 c0 -16 98 -647 103 -662 3 -9 534 -196 540 -190 3 4
-101 676 -106 679 -1 1 -117 42 -257 90 -140 49 -261 90 -267 93 -7 2 -13 -2
-13 -10z"/>
<path d="M16760 13794 c0 -34 102 -659 108 -665 15 -13 523 -181 529 -175 6 5
-93 665 -100 673 -3 2 -529 183 -534 183 -2 0 -3 -7 -3 -16z"/>
<path d="M7260 12363 c-102 -104 -225 -229 -273 -279 l-88 -91 17 -67 17 -68
51 51 51 50 348 -91 348 -92 253 253 c245 245 255 254 286 248 29 -6 31 -5 25
16 -4 12 -11 26 -16 31 -6 7 -806 225 -829 226 -3 0 -88 -84 -190 -187z"/>
<path d="M17990 12144 c0 -21 100 -657 104 -661 7 -8 527 -185 531 -181 5 5
-96 661 -104 670 -3 4 -124 47 -268 97 -202 69 -263 87 -263 75z"/>
<path d="M7874 11484 c-64 -97 -114 -177 -112 -179 1 -1 100 -12 218 -24 118
-12 234 -24 257 -27 l41 -6 121 181 121 180 -33 5 c-55 9 -430 46 -465 46 -31
0 -37 -7 -148 -176z"/>
<path d="M12310 10909 c-151 -154 -271 -279 -267 -279 25 0 664 -174 673 -184
11 -11 144 -502 144 -531 0 -22 -1683 -1720 -1689 -1704 -2 8 -32 115 -65 239
l-61 225 -378 99 -378 100 -253 -253 -252 -252 -850 224 c-467 124 -851 223
-853 221 -3 -3 100 -407 135 -526 4 -14 -81 -60 -463 -252 l-468 -234 -51
-173 c-29 -96 -50 -176 -48 -178 1 -2 250 121 551 274 l548 277 705 -187 c388
-103 766 -202 840 -221 74 -19 141 -37 149 -40 11 -3 7 -12 -14 -34 -16 -16
-27 -31 -24 -34 2 -2 172 -47 377 -101 l372 -98 23 20 c12 11 38 26 58 33 l37
13 565 -326 c311 -179 570 -328 577 -329 7 -2 42 45 79 104 244 395 313 512
305 516 -32 13 -1069 619 -1069 624 0 4 375 387 833 852 l833 845 31 -11 c30
-11 32 -9 197 155 l166 166 120 -69 c66 -38 123 -70 126 -70 3 0 145 81 314
179 286 166 310 179 329 165 29 -20 36 -18 36 15 0 27 -19 39 -375 245 -372
215 -375 216 -404 202 l-29 -15 -31 117 c-18 64 -42 153 -54 197 l-23 80 -364
97 c-201 53 -369 97 -375 96 -5 0 -134 -126 -285 -279z"/>
<path d="M8408 10723 c-65 -98 -116 -179 -114 -181 5 -4 451 -51 492 -52 29 0
38 11 148 176 65 97 116 177 114 179 -3 3 -492 55 -513 55 -5 0 -63 -80 -127
-177z"/>
<path d="M16165 10137 l-900 -523 -60 178 -60 177 -145 -84 c-79 -46 -146 -88
-147 -92 -1 -4 184 -115 411 -246 l414 -238 924 536 c507 295 927 540 931 544
7 7 -440 271 -460 271 -5 0 -414 -235 -908 -523z"/>
<path d="M4946 9941 c-146 -146 -266 -272 -266 -278 0 -29 143 -539 153 -545
6 -3 40 -14 76 -23 36 -9 90 -23 120 -31 l54 -15 -97 -98 c-54 -54 -94 -101
-90 -103 5 -3 177 -49 382 -103 303 -80 377 -96 390 -87 10 7 23 15 29 18 7 3
296 -69 641 -160 346 -91 636 -166 644 -166 10 0 24 33 46 108 18 59 61 208
97 332 36 124 68 232 70 241 4 12 -144 54 -845 240 -467 123 -850 228 -850
232 0 5 109 119 242 253 133 134 240 246 237 247 -2 2 -103 30 -224 62 -121
32 -293 77 -381 100 l-162 43 -266 -267z"/>
<path d="M8954 9934 c-63 -97 -114 -177 -112 -179 2 -1 117 -13 256 -26 227
-22 254 -23 266 -9 15 17 227 340 223 340 -1 0 -112 11 -247 25 -135 14 -251
25 -258 25 -7 0 -64 -79 -128 -176z"/>
<path d="M13631 9488 c-132 -115 -159 -143 -144 -149 10 -3 120 -46 245 -94
225 -86 228 -86 251 -68 57 45 297 258 297 263 0 6 -469 190 -482 190 -3 0
-78 -64 -167 -142z"/>
<path d="M9506 9154 c-65 -97 -116 -177 -114 -178 2 -2 111 -13 243 -25 132
-13 247 -23 255 -24 9 -1 61 66 132 172 65 96 116 176 114 178 -3 3 -477 53
-502 53 -6 0 -64 -79 -128 -176z"/>
<path d="M13947 8613 c-87 -75 -157 -139 -157 -142 0 -6 468 -186 483 -186 9
0 328 277 324 281 -6 7 -472 184 -483 184 -6 0 -81 -61 -167 -137z"/>
<path d="M17773 7777 c-183 -106 -335 -195 -337 -198 -3 -3 132 -83 300 -179
l305 -175 -3 -282 c-2 -155 -6 -284 -8 -286 -4 -3 -2034 -1182 -2070 -1202 -3
-2 -4 108 -2 243 l3 247 -334 192 c-184 106 -339 193 -344 195 -5 2 -147 -77
-316 -174 l-306 -178 -762 440 c-419 242 -763 440 -764 440 -2 0 -6 -126 -10
-280 -7 -245 -10 -280 -24 -284 -9 -3 -230 -48 -491 -101 -261 -53 -484 -100
-496 -104 -24 -10 -209 -304 -194 -309 5 -2 277 51 603 118 l593 121 652 -378
c359 -208 661 -382 670 -388 10 -5 61 -34 115 -64 l98 -55 -36 -20 c-19 -11
-35 -22 -35 -25 0 -4 151 -93 335 -199 l335 -192 346 202 c344 200 346 201
319 215 -15 8 -23 19 -19 23 5 5 486 286 1069 625 l1060 616 31 -16 30 -16
245 142 c134 78 286 166 338 196 l94 55 -79 45 c-44 25 -96 56 -117 68 l-39
23 121 68 121 69 0 287 0 286 -331 191 c-182 105 -332 191 -332 191 -1 0 -152
-87 -334 -193z"/>
<path d="M14269 7712 c-86 -75 -154 -140 -150 -143 9 -9 456 -179 470 -179 12
0 325 270 319 275 -3 3 -479 185 -481 185 -1 0 -72 -62 -158 -138z"/>
<path d="M14595 6813 c-115 -101 -153 -139 -142 -145 38 -21 462 -178 471
-175 8 4 230 195 309 267 7 6 -453 190 -475 190 -4 0 -77 -62 -163 -137z"/>
</g>
</svg>
