<?xml version="1.0" standalone="no"?>
<!DOCTYPE svg PUBLIC "-//W3C//DTD SVG 20010904//EN"
 "http://www.w3.org/TR/2001/REC-SVG-20010904/DTD/svg10.dtd">
<svg version="1.0" xmlns="http://www.w3.org/2000/svg"
 width="2939.000000pt" height="2973.000000pt" viewBox="0 0 2939.000000 2973.000000"
 preserveAspectRatio="xMidYMid meet">

<g transform="translate(0.000000,2973.000000) scale(0.100000,-0.100000)"
fill="#000000" stroke="none">
<path d="M12050 23087 c-568 -308 -1016 -561 -1890 -1069 -630 -366 -1175
-682 -1212 -703 -59 -34 -65 -40 -50 -51 28 -19 1701 -984 1707 -984 2 0 6
435 7 966 l3 967 1089 633 c1001 582 1108 645 1095 644 -2 -1 -339 -182 -749
-403z"/>
<path d="M11500 17186 c-282 -39 -505 -150 -711 -355 -236 -236 -376 -536
-451 -967 -21 -117 -23 -161 -23 -464 0 -356 6 -420 61 -717 147 -799 570
-1716 1107 -2403 415 -531 847 -921 1326 -1199 166 -97 222 -124 377 -186 551
-222 1059 -213 1436 25 383 242 598 626 690 1230 18 116 17 640 0 780 -61 487
-191 954 -400 1435 -629 1454 -1822 2607 -2905 2806 -142 26 -377 33 -507 15z
m629 -371 c345 -74 705 -247 1036 -498 296 -224 629 -562 867 -879 673 -895
1053 -1948 1025 -2843 -14 -432 -101 -738 -293 -1026 -47 -71 -192 -229 -209
-229 -5 0 -193 287 -417 638 -592 926 -580 908 -1118 1747 -271 424 -601 939
-733 1145 -133 206 -443 690 -689 1074 l-449 700 23 18 c36 29 195 103 283
133 187 62 442 70 674 20z m-614 -1156 c292 -457 545 -854 564 -882 31 -48
651 -1016 1333 -2082 151 -236 427 -666 612 -953 185 -288 336 -526 336 -528
0 -9 -101 -54 -175 -77 -123 -38 -217 -51 -370 -51 -151 0 -246 12 -397 50
-592 148 -1254 637 -1783 1319 -373 481 -700 1104 -875 1671 -79 252 -139 542
-165 788 -17 168 -20 483 -4 624 33 304 121 578 254 784 51 78 123 168 133
168 4 -1 246 -374 537 -831z"/>
<path d="M8975 9932 c-110 -65 -199 -121 -198 -126 4 -16 8056 -4657 8073
-4653 14 4 2666 1541 2713 1572 16 11 -7 27 -184 129 -111 64 -205 116 -210
116 -5 0 -524 -299 -1154 -665 -629 -366 -1151 -668 -1159 -671 -9 -3 -1575
895 -3836 2201 -2102 1214 -3827 2208 -3834 2210 -6 2 -101 -49 -211 -113z"/>
</g>
</svg>
