<?xml version="1.0" standalone="no"?>
<!DOCTYPE svg PUBLIC "-//W3C//DTD SVG 20010904//EN"
 "http://www.w3.org/TR/2001/REC-SVG-20010904/DTD/svg10.dtd">
<svg version="1.0" xmlns="http://www.w3.org/2000/svg"
 width="2938.000000pt" height="2973.000000pt" viewBox="0 0 2938.000000 2973.000000"
 preserveAspectRatio="xMidYMid meet">

<g transform="translate(0.000000,2973.000000) scale(0.100000,-0.100000)"
fill="#000000" stroke="none">
<path d="M15696 18719 c-4 -206 -6 -720 -4 -1143 l3 -769 994 -574 c546 -315
996 -572 998 -569 4 3 -1885 3268 -1967 3400 -17 28 -18 19 -24 -345z"/>
<path d="M13062 16440 l3 -202 170 -99 170 -98 3 192 c1 105 0 197 -2 203 -3
9 -299 186 -338 202 -5 2 -7 -87 -6 -198z"/>
<path d="M13970 15912 l0 -197 169 -98 c92 -53 171 -97 175 -97 3 0 6 89 6
199 l0 198 -168 97 c-93 53 -171 96 -175 96 -4 0 -7 -89 -7 -198z"/>
<path d="M15910 15847 c0 -172 2 -196 18 -209 26 -23 317 -188 331 -188 8 0
11 51 9 197 l-3 197 -170 98 c-93 54 -173 98 -177 98 -5 0 -8 -87 -8 -193z"/>
<path d="M14882 15383 l3 -197 170 -98 c94 -54 173 -98 178 -98 4 0 7 87 7
193 0 172 -2 196 -17 209 -27 23 -318 188 -332 188 -8 0 -11 -51 -9 -197z"/>
<path d="M16312 15089 l3 -203 170 -98 170 -98 3 192 c1 106 1 197 -2 203 -3
8 -192 121 -339 202 -4 3 -6 -87 -5 -198z"/>
<path d="M15802 14859 l3 -204 169 -97 c93 -54 171 -98 173 -98 2 0 2 90 1
201 l-3 201 -115 67 c-63 37 -141 82 -173 100 l-57 33 2 -203z"/>
<path d="M16710 14331 l0 -199 158 -90 c86 -50 165 -94 175 -97 16 -7 17 6 17
191 l0 199 -170 98 c-93 53 -171 97 -174 97 -4 0 -6 -89 -6 -199z"/>
<path d="M16312 14039 l3 -203 170 -98 170 -98 3 197 c1 108 -1 200 -5 204 -7
7 -138 84 -286 168 l-57 33 2 -203z"/>
<path d="M15910 13742 l0 -198 168 -97 c93 -53 172 -97 175 -97 4 0 7 89 7
198 l0 198 -168 97 c-93 53 -172 97 -175 97 -4 0 -7 -89 -7 -198z"/>
<path d="M11205 11684 c-99 -57 -181 -108 -183 -112 -1 -5 7471 -4327 7684
-4443 l41 -23 1254 729 c690 400 1261 733 1270 739 14 9 -14 29 -162 114
l-179 103 -1078 -626 c-592 -345 -1081 -627 -1087 -627 -5 0 -1664 955 -3685
2122 -2021 1167 -3679 2124 -3685 2126 -5 2 -91 -44 -190 -102z"/>
<path d="M12465 9204 c-357 -245 -651 -448 -652 -452 -2 -4 319 -162 712 -352
393 -189 714 -349 712 -354 -4 -11 -3048 -2096 -3061 -2096 -5 0 -703 335
-1550 744 -2487 1201 -2331 1127 -2334 1108 -3 -20 35 -543 40 -546 2 -2 63
-31 136 -66 72 -35 132 -66 132 -70 0 -4 -49 -40 -109 -80 -61 -41 -108 -76
-106 -80 2 -3 814 -397 1804 -875 991 -479 1801 -873 1801 -876 0 -3 -10 -10
-22 -16 l-22 -10 24 -15 c14 -9 856 -496 1872 -1082 l1847 -1066 1603 931
c882 512 1608 936 1613 942 12 14 -3 1599 -15 1607 -4 3 -10 196 -13 429 -4
233 -9 426 -11 428 -6 7 -1359 -780 -1360 -791 -1 -4 305 -185 679 -401 374
-216 680 -398 680 -405 0 -6 -720 -430 -1600 -942 -1178 -684 -1604 -927
-1616 -921 -9 4 -636 366 -1392 803 -1048 605 -1373 798 -1364 806 7 6 557
384 1222 839 666 454 1215 832 1222 838 11 12 5 93 -72 947 -8 97 -24 282 -34
412 -11 129 -24 244 -30 254 -6 11 -26 205 -46 433 -19 228 -36 415 -37 417
-2 1 -295 -198 -653 -442z"/>
<path d="M8827 8928 c-59 -40 -107 -76 -107 -79 0 -3 54 -31 119 -61 l120 -56
112 76 113 76 -123 58 c-68 32 -124 58 -125 58 -1 0 -50 -33 -109 -72z"/>
<path d="M9483 8611 c-62 -42 -112 -78 -112 -81 -1 -3 55 -31 123 -63 l124
-59 105 71 c58 39 108 75 112 80 6 10 -75 55 -188 105 l-53 23 -111 -76z"/>
<path d="M11491 8342 l-112 -76 73 -38 c40 -20 96 -46 125 -58 l52 -22 105 73
c58 40 106 75 106 78 -1 3 -54 31 -119 62 l-119 57 -111 -76z"/>
<path d="M10146 8290 c-54 -38 -101 -71 -103 -74 -3 -3 49 -32 115 -65 l119
-60 112 77 112 76 -113 58 c-62 31 -120 57 -128 57 -8 0 -59 -31 -114 -69z"/>
<path d="M11478 7997 c-59 -40 -107 -74 -107 -77 0 -3 54 -31 120 -62 l121
-58 61 42 c34 22 84 57 111 76 l49 36 -114 57 c-63 32 -118 58 -124 58 -5 0
-58 -32 -117 -72z"/>
<path d="M10806 7970 c-54 -38 -101 -71 -104 -74 -6 -6 216 -116 234 -116 19
0 220 140 214 148 -7 10 -220 112 -234 112 -6 -1 -55 -32 -110 -70z"/>
<path d="M11463 7649 c-57 -39 -101 -74 -98 -78 2 -4 56 -31 119 -61 l116 -53
78 51 c43 29 93 63 111 77 l34 24 -118 56 c-65 30 -123 55 -129 55 -6 -1 -57
-33 -113 -71z"/>
<path d="M10891 7595 c-52 -35 -100 -70 -108 -78 -11 -11 5 -22 106 -71 l119
-58 93 62 c147 98 146 83 8 151 -66 32 -121 59 -122 58 -1 0 -44 -29 -96 -64z"/>
<path d="M10289 7519 c-57 -39 -106 -72 -108 -74 -2 -2 51 -31 117 -64 l120
-60 112 76 113 76 -114 58 c-63 32 -119 58 -125 58 -5 1 -57 -31 -115 -70z"/>
<path d="M13170 6599 c-58 -34 -109 -65 -113 -69 -8 -7 211 -140 231 -140 18
0 225 124 225 135 0 11 -208 135 -226 135 -7 0 -59 -28 -117 -61z"/>
<path d="M13796 6223 l-109 -65 64 -37 c35 -20 89 -51 119 -68 l55 -31 113 66
c61 37 112 69 112 72 -1 9 -218 130 -232 129 -7 0 -62 -30 -122 -66z"/>
<path d="M15152 6182 c-90 -52 -110 -68 -100 -77 7 -7 58 -38 112 -69 87 -50
103 -56 124 -47 38 18 214 123 210 126 -4 4 -178 105 -208 120 -23 12 -34 8
-138 -53z"/>
<path d="M14443 5862 c-62 -37 -113 -69 -113 -72 1 -7 218 -130 229 -130 5 0
60 30 121 66 l113 66 -64 37 c-35 20 -89 51 -119 68 l-55 31 -112 -66z"/>
<path d="M15108 5837 c-59 -34 -107 -64 -108 -67 0 -3 52 -35 116 -71 l115
-67 115 67 c63 36 114 68 114 71 -1 8 -219 130 -233 129 -6 0 -60 -28 -119
-62z"/>
<path d="M15079 5497 c-58 -34 -105 -66 -105 -72 -1 -5 49 -38 109 -73 l111
-63 109 64 c60 35 109 67 108 73 -1 8 -209 135 -221 134 -3 -1 -53 -29 -111
-63z"/>
<path d="M14483 5472 c-87 -51 -110 -69 -100 -78 18 -16 207 -124 217 -124 10
0 199 108 218 124 12 12 -4 23 -168 114 l-55 30 -112 -66z"/>
<path d="M13888 5448 c-60 -34 -108 -65 -108 -68 0 -3 51 -36 114 -72 l113
-66 109 64 c60 35 110 67 112 72 3 9 -206 132 -223 132 -6 0 -58 -28 -117 -62z"/>
</g>
</svg>
