<?xml version="1.0" standalone="no"?>
<!DOCTYPE svg PUBLIC "-//W3C//DTD SVG 20010904//EN"
 "http://www.w3.org/TR/2001/REC-SVG-20010904/DTD/svg10.dtd">
<svg version="1.0" xmlns="http://www.w3.org/2000/svg"
 width="2938.000000pt" height="2973.000000pt" viewBox="0 0 2938.000000 2973.000000"
 preserveAspectRatio="xMidYMid meet">

<g transform="translate(0.000000,2973.000000) scale(0.100000,-0.100000)"
fill="#000000" stroke="none">
<path d="M9483 12497 c-175 -101 -208 -124 -194 -133 68 -46 7359 -4248 7371
-4248 23 0 2542 1466 2533 1475 -5 4 -91 55 -192 113 l-184 106 -1010 -587
c-555 -324 -1024 -596 -1041 -606 -56 -33 -132 -19 -266 50 -63 33 -621 352
-1240 709 -619 358 -2079 1201 -3245 1874 -2077 1198 -2198 1269 -2281 1336
l-41 33 -210 -122z"/>
</g>
</svg>
